<?xml version="1.0" encoding="UTF-8"?>
<svg version="1.1" xmlns="http://www.w3.org/2000/svg" width="800" height="800">
<path d="M0 0 C5.59903121 3.83585272 10.48684772 8.19715766 15.2616272 13.00093079 C15.94618245 13.68166049 16.63073769 14.36239019 17.33603704 15.06374806 C19.60979749 17.32725755 21.87641922 19.59777734 24.14306641 21.8684082 C25.7794053 23.5003963 27.41616047 25.1319671 29.05329895 26.76315308 C33.48555269 31.18204638 37.91141062 35.60729272 42.33572054 40.03413796 C46.03424191 43.73373088 49.73573966 47.43033882 53.43718946 51.12700146 C62.66957419 60.34766851 71.89566704 69.57460314 81.11897735 78.80434617 C89.11645276 86.80699104 97.12211231 94.8013909 105.13167043 102.79194102 C113.37094805 111.0118163 121.60447726 119.23740861 129.8323282 127.46872205 C134.44567926 132.08388407 139.06121593 136.69680469 143.68242264 141.30410194 C148.02788662 145.63697429 152.36600875 149.97706674 156.6986599 154.32275009 C158.28673496 155.91318739 159.87735466 157.50108865 161.47073936 159.08620644 C163.65164403 161.2566128 165.82301788 163.43614371 167.99234009 165.61811829 C168.61919445 166.23759836 169.24604881 166.85707843 169.89189875 167.49533063 C178.02041974 175.7233498 183.41040952 183.90480776 183.375 195.75 C183.23619079 214.48070087 169.49664331 225.81139378 157.046875 238.1484375 C155.81574094 239.37582886 154.58505697 240.60367183 153.35479736 241.8319397 C150.1456281 245.03354992 146.930502 248.22910962 143.71398926 251.42333984 C140.44108839 254.67569481 137.17390902 257.93378631 133.90625 261.19140625 C128.63330756 266.44687262 123.35702276 271.69895338 118.07595825 276.94625854 C113.97024209 281.0264579 109.87028475 285.1121779 105.80200195 289.22973633 C102.65354311 292.41361799 99.49913479 295.59153006 96.3425293 298.76733398 C94.98203391 300.13797377 93.62332623 301.5103902 92.26635742 302.88452148 C90.30330991 304.8716961 88.3339891 306.85245706 86.36328125 308.83203125 C85.75494949 309.45068558 85.14661774 310.0693399 84.51985168 310.70674133 C83.0507112 312.1762751 81.52984713 313.5937742 80 315 C79.34 315 78.68 315 78 315 C77.73082764 315.59383484 77.46165527 316.18766968 77.18432617 316.79949951 C75.99891049 319.00202434 74.80893868 320.44449593 73.05078125 322.20800781 C72.45676514 322.80832825 71.86274902 323.40864868 71.25073242 324.02716064 C70.29130737 324.980513 70.29130737 324.980513 69.3125 325.953125 C68.65419189 326.61334656 67.99588379 327.27356812 67.31762695 327.95379639 C65.92807708 329.34470501 64.53600726 330.73310008 63.14160156 332.11914062 C61.00090714 334.24909741 58.8711209 336.38954496 56.7421875 338.53125 C55.39126613 339.88085039 54.03972482 341.22983059 52.6875 342.578125 C52.0478833 343.22179016 51.4082666 343.86545532 50.74926758 344.52862549 C46.22992911 349 46.22992911 349 44 349 C43.77570313 349.55171875 43.55140625 350.1034375 43.3203125 350.671875 C41.59614817 353.71211744 39.37484178 355.81425673 36.875 358.25 C35.96492187 359.14203125 35.05484375 360.0340625 34.1171875 360.953125 C33.06917969 361.96632813 33.06917969 361.96632813 32 363 C32.86625 363.84304688 33.7325 364.68609375 34.625 365.5546875 C35.75026041 366.66119357 36.87524628 367.76797888 38 368.875 C38.57234375 369.43058594 39.1446875 369.98617188 39.734375 370.55859375 C41.19450782 372.00134404 42.60149298 373.4974374 44 375 C44 375.66 44 376.32 44 377 C44.59383484 377.26917236 45.18766968 377.53834473 45.79949951 377.81567383 C48.00202434 379.00108951 49.44449593 380.19106132 51.20800781 381.94921875 C51.80832825 382.54323486 52.40864868 383.13725098 53.02716064 383.74926758 C53.980513 384.70869263 53.980513 384.70869263 54.953125 385.6875 C55.61334656 386.34580811 56.27356812 387.00411621 56.95379639 387.68237305 C58.34470501 389.07192292 59.73310008 390.46399274 61.11914062 391.85839844 C63.24909741 393.99909286 65.38954496 396.1288791 67.53125 398.2578125 C68.88085039 399.60873387 70.22983059 400.96027518 71.578125 402.3125 C72.22179016 402.9521167 72.86545532 403.5917334 73.52862549 404.25073242 C78 408.77007089 78 408.77007089 78 411 C78.59736465 411.27204758 79.19472931 411.54409515 79.81019592 411.8243866 C81.954648 412.97565242 83.33382652 414.09137816 85.03686523 415.80981445 C85.60102646 416.37412674 86.16518768 416.93843903 86.7464447 417.51985168 C87.64345848 418.43234932 87.64345848 418.43234932 88.55859375 419.36328125 C89.18476089 419.99227829 89.81092804 420.62127533 90.45606995 421.26933289 C92.45463254 423.27906716 94.44613995 425.29563129 96.4375 427.3125 C97.77362542 428.65866295 99.11020915 430.00437118 100.44726562 431.34960938 C103.4106729 434.33261697 106.36963914 437.31995003 109.32469177 440.31123352 C113.45977446 444.47953456 117.62589162 448.61645806 121.79663086 452.74902344 C127.46649489 458.36981705 133.1286796 463.99828156 138.78656673 469.63113022 C142.20100318 473.02991318 145.61819009 476.42583297 149.04174805 479.81542969 C152.36745873 483.10837552 155.68563407 486.40874833 158.99887276 489.71424103 C160.2556105 490.96547437 161.51496719 492.21408341 162.77708244 493.45989227 C173.66861584 504.21620651 183.17382097 513.86967464 183.4375 529.9375 C183.31627518 544.43465947 174.73388913 553.58250988 164.8788147 563.38861084 C164.19723057 564.07472608 163.51564645 564.76084132 162.81340826 565.46774793 C160.55299017 567.74071688 158.28559686 570.00658903 156.01806641 572.27246094 C154.38593938 573.91057879 152.75422105 575.54910393 151.12287903 577.18800354 C146.70826868 581.62021864 142.28724939 586.04598606 137.8644681 590.47004604 C135.09916021 593.23677853 132.33528257 596.00493149 129.57191086 598.77359772 C120.42202813 607.94100627 111.26805453 617.10429659 102.10865314 626.26219448 C101.61614722 626.7546205 101.12364129 627.24704652 100.61621094 627.75439453 C100.12309758 628.24742613 99.62998421 628.74045773 99.12192802 629.24842969 C91.12441212 637.24513206 83.13693097 645.25177516 75.15392347 653.26295874 C66.94039151 661.50524967 58.7192121 669.73984299 50.49060762 677.96708703 C45.87751383 682.57967141 41.26756464 687.19529374 36.66533279 691.81871796 C32.33870307 696.16472835 28.00255067 700.50100758 23.65895653 704.83006096 C22.06924995 706.4176786 20.48293462 708.00870055 18.90033531 709.60340309 C16.7344384 711.78478434 14.55647603 713.95338393 12.37515259 716.11932373 C11.75635463 716.74840881 11.13755668 717.37749389 10.50000727 718.02564216 C2.91927568 725.48925464 -5.97289391 730.25308704 -16.75 730.375 C-26.66684173 730.20797951 -34.82401353 726.91363857 -42 720 C-49.7163284 711.04136023 -51.45729475 700.57864688 -51.39872742 689.07234192 C-51.40537424 688.0298045 -51.41202107 686.98726708 -51.41886932 685.91313761 C-51.43738941 682.45086041 -51.43490141 678.98893213 -51.43237305 675.52661133 C-51.44139689 673.03240475 -51.45172564 670.5382026 -51.46325684 668.04400635 C-51.48508977 662.69011705 -51.49791396 657.33632432 -51.50238609 651.98240089 C-51.5088677 644.24172254 -51.53184021 636.50116077 -51.55872939 628.7605296 C-51.60192111 616.19933761 -51.63193125 603.63815056 -51.65356445 591.0769043 C-51.67459703 578.88091612 -51.70189194 566.68496824 -51.73754883 554.48901367 C-51.73974765 553.73619375 -51.74194648 552.98337383 -51.74421193 552.20774118 C-51.75528216 548.43074782 -51.76647486 544.65375484 -51.77772844 540.87676203 C-51.87080564 509.58454161 -51.94223241 478.29230649 -52 447 C-52.73471527 447.73915649 -53.46943054 448.47831299 -54.22640991 449.23986816 C-61.13716312 456.19109244 -68.05313643 463.13708469 -74.97430992 470.07793427 C-78.53273426 473.64681417 -82.08926688 477.21753826 -85.64160156 480.79248047 C-89.06721911 484.23976326 -92.49764081 487.68219606 -95.93150711 491.1212616 C-97.24343259 492.43689422 -98.553591 493.7542913 -99.86198044 495.07344055 C-101.68904249 496.91493348 -103.52217895 498.75016042 -105.35693359 500.58398438 C-106.17368813 501.41152473 -106.17368813 501.41152473 -107.00694275 502.25578308 C-110.77189568 506 -110.77189568 506 -113 506 C-113.2578125 506.58265625 -113.515625 507.1653125 -113.78125 507.765625 C-115.09834017 510.1802903 -116.55088384 511.81740177 -118.5 513.75 C-119.1084375 514.36359375 -119.716875 514.9771875 -120.34375 515.609375 C-122 517 -122 517 -124 517 C-124.2475 517.57234375 -124.495 518.1446875 -124.75 518.734375 C-126.19316199 521.35010611 -127.88216222 523.14773456 -130 525.25 C-131.051875 526.30960938 -131.051875 526.30960938 -132.125 527.390625 C-134 529 -134 529 -136 529 C-136.35578125 529.84304688 -136.35578125 529.84304688 -136.71875 530.703125 C-138.28947697 533.51894042 -140.21471464 535.47955416 -142.5 537.75 C-143.2940625 538.54921875 -144.088125 539.3484375 -144.90625 540.171875 C-147 542 -147 542 -149 542 C-149.26554687 542.59039063 -149.53109375 543.18078125 -149.8046875 543.7890625 C-154.29775671 552.09977222 -164.30747107 559.12663565 -173.0390625 562.296875 C-183.31752293 564.73767035 -192.20960074 563.87835658 -201.44921875 558.703125 C-205.81416439 555.78870494 -209.29692164 553.04223771 -212.1875 548.625 C-212.67605469 547.89539063 -213.16460937 547.16578125 -213.66796875 546.4140625 C-218.18770707 538.2228652 -218.29638963 528.12092823 -216.3828125 519.0859375 C-211.953952 506.73999893 -200.67957375 497.3801764 -191.6015625 488.3359375 C-190.31712169 487.05014681 -189.03297768 485.76405959 -187.74911499 484.47769165 C-185.07799949 481.80364857 -182.40335251 479.13320441 -179.72607422 476.46533203 C-176.28927163 473.04001553 -172.8616512 469.60567178 -169.43654823 466.16866112 C-166.79627167 463.52118048 -164.15127913 460.87845303 -161.5048027 458.23717117 C-160.23780783 456.97151205 -158.97230135 455.70436118 -157.70830154 454.43571091 C-155.95175285 452.67411096 -154.1889713 450.91900174 -152.42431641 449.16552734 C-151.90173248 448.63889496 -151.37914856 448.11226257 -150.84072876 447.56967163 C-147.22854658 444 -147.22854658 444 -145 444 C-144.72893433 443.40427185 -144.45786865 442.8085437 -144.17858887 442.19476318 C-143.01596143 440.02972331 -141.86848412 438.6151363 -140.14257812 436.88378906 C-139.56858276 436.30348938 -138.9945874 435.7231897 -138.40319824 435.12530518 C-137.78545532 434.51161072 -137.1677124 433.89791626 -136.53125 433.265625 C-135.89513794 432.62759949 -135.25902588 431.98957397 -134.6036377 431.33221436 C-133.26116613 429.98838426 -131.91617539 428.64706671 -130.56884766 427.30810547 C-128.50057835 425.25057535 -126.44322672 423.18255951 -124.38671875 421.11328125 C-123.08137029 419.80925375 -121.7754019 418.50584644 -120.46875 417.203125 C-119.85100708 416.58133362 -119.23326416 415.95954224 -118.59680176 415.31890869 C-114.22993073 411 -114.22993073 411 -112 411 C-111.73082764 410.40616516 -111.46165527 409.81233032 -111.18432617 409.20050049 C-109.99891049 406.99797566 -108.80893868 405.55550407 -107.05078125 403.79199219 C-106.45676514 403.19167175 -105.86274902 402.59135132 -105.25073242 401.97283936 C-104.61111572 401.33727112 -103.97149902 400.70170288 -103.3125 400.046875 C-102.65419189 399.38665344 -101.99588379 398.72643188 -101.31762695 398.04620361 C-99.92807708 396.65529499 -98.53600726 395.26689992 -97.14160156 393.88085938 C-95.00090714 391.75090259 -92.8711209 389.61045504 -90.7421875 387.46875 C-89.39126613 386.11914961 -88.03972482 384.77016941 -86.6875 383.421875 C-86.0478833 382.77820984 -85.4082666 382.13454468 -84.74926758 381.47137451 C-80.22992911 377 -80.22992911 377 -78 377 C-77.77570313 376.44828125 -77.55140625 375.8965625 -77.3203125 375.328125 C-75.59614817 372.28788256 -73.37484178 370.18574327 -70.875 367.75 C-69.96492187 366.85796875 -69.05484375 365.9659375 -68.1171875 365.046875 C-67.06917969 364.03367187 -67.06917969 364.03367187 -66 363 C-66.86625 362.15695312 -67.7325 361.31390625 -68.625 360.4453125 C-69.75026041 359.33880643 -70.87524628 358.23202112 -72 357.125 C-72.57234375 356.56941406 -73.1446875 356.01382812 -73.734375 355.44140625 C-75.19450782 353.99865596 -76.60149298 352.5025626 -78 351 C-78 350.34 -78 349.68 -78 349 C-78.89075226 348.59624146 -78.89075226 348.59624146 -79.79949951 348.18432617 C-82.00202434 346.99891049 -83.44449593 345.80893868 -85.20800781 344.05078125 C-85.80832825 343.45676514 -86.40864868 342.86274902 -87.02716064 342.25073242 C-87.66272888 341.61111572 -88.29829712 340.97149902 -88.953125 340.3125 C-89.61334656 339.65419189 -90.27356812 338.99588379 -90.95379639 338.31762695 C-92.34470501 336.92807708 -93.73310008 335.53600726 -95.11914062 334.14160156 C-97.24909741 332.00090714 -99.38954496 329.8711209 -101.53125 327.7421875 C-102.88085039 326.39126613 -104.22983059 325.03972482 -105.578125 323.6875 C-106.22179016 323.0478833 -106.86545532 322.4082666 -107.52862549 321.74926758 C-112 317.22992911 -112 317.22992911 -112 315 C-112.59736465 314.72795242 -113.19472931 314.45590485 -113.81019592 314.1756134 C-115.954648 313.02434758 -117.33382652 311.90862184 -119.03686523 310.19018555 C-119.60102646 309.62587326 -120.16518768 309.06156097 -120.7464447 308.48014832 C-121.34445389 307.87181656 -121.94246307 307.2634848 -122.55859375 306.63671875 C-123.18476089 306.00772171 -123.81092804 305.37872467 -124.45606995 304.73066711 C-126.45463254 302.72093284 -128.44613995 300.70436871 -130.4375 298.6875 C-131.77362542 297.34133705 -133.11020915 295.99562882 -134.44726562 294.65039062 C-137.4106729 291.66738303 -140.36963914 288.68004997 -143.32469177 285.68876648 C-147.43187629 281.54858772 -151.56830672 277.43772426 -155.70483398 273.3269043 C-161.27272386 267.79171245 -166.83550791 262.25141864 -172.39541531 256.70820904 C-175.75063213 253.36343147 -179.10769645 250.02055226 -182.46899414 246.68188477 C-185.73412029 243.43859065 -188.99424457 240.1903436 -192.25105476 236.93869972 C-193.48635137 235.70707459 -194.72339545 234.47719937 -195.96227837 233.24918175 C-217.29239589 212.09882545 -217.29239589 212.09882545 -217.5 195.9375 C-217.34824637 185.11031714 -213.23423999 177.884687 -206 170 C-197.20038421 162.73075218 -187.0617702 161.98037274 -176 163 C-165.14049339 165.27186331 -156.23595437 173.98178029 -149 182 C-149 182.66 -149 183.32 -149 184 C-148.15695312 184.35578125 -148.15695312 184.35578125 -147.296875 184.71875 C-144.48105958 186.28947697 -142.52044584 188.21471464 -140.25 190.5 C-139.45078125 191.2940625 -138.6515625 192.088125 -137.828125 192.90625 C-136 195 -136 195 -136 197 C-135.15695312 197.35578125 -135.15695312 197.35578125 -134.296875 197.71875 C-131.48105958 199.28947697 -129.52044584 201.21471464 -127.25 203.5 C-126.45078125 204.2940625 -125.6515625 205.088125 -124.828125 205.90625 C-123 208 -123 208 -123 210 C-122.12601563 210.38671875 -122.12601563 210.38671875 -121.234375 210.78125 C-118.8197097 212.09834017 -117.18259823 213.55088384 -115.25 215.5 C-114.63640625 216.1084375 -114.0228125 216.716875 -113.390625 217.34375 C-112 219 -112 219 -112 221 C-111.45539124 221.21929169 -110.91078247 221.43858337 -110.34967041 221.66452026 C-107.22947731 223.43794118 -104.90417021 225.83349558 -102.40527344 228.36767578 C-101.58509735 229.18741379 -101.58509735 229.18741379 -100.74835205 230.02371216 C-98.94724351 231.82621093 -97.15331753 233.63568396 -95.359375 235.4453125 C-94.10999505 236.69842367 -92.86017199 237.95109319 -91.60992432 239.20333862 C-88.32413128 242.49675955 -85.0443893 245.79614291 -81.76586914 249.09680176 C-78.41785747 252.46528994 -75.06416093 255.8281076 -71.7109375 259.19140625 C-65.13504704 265.78873176 -58.56553484 272.39236983 -52 279 C-51.99668985 277.70440187 -51.99337971 276.40880373 -51.98996925 275.07394505 C-51.91091705 244.30508273 -51.82168404 213.53626862 -51.71994839 182.76747358 C-51.70742982 178.97869031 -51.694997 175.18990677 -51.68261719 171.40112305 C-51.68015119 170.6468583 -51.6776852 169.89259356 -51.67514448 169.11547231 C-51.63544274 156.9095292 -51.60268397 144.70357687 -51.57250018 132.49760694 C-51.54136389 119.9690883 -51.50274519 107.44060877 -51.45720994 94.91213411 C-51.42935714 87.184126 -51.40731022 79.45614642 -51.39273749 71.72810166 C-51.38092903 65.79787516 -51.35869995 59.86771614 -51.33261681 53.93753433 C-51.3235539 51.50797615 -51.3178538 49.07840271 -51.31578636 46.64882851 C-51.31245481 43.3281614 -51.29695272 40.0077615 -51.2784729 36.68714905 C-51.28040763 35.7289547 -51.28234237 34.77076036 -51.28433573 33.78352982 C-51.19247361 22.71873841 -48.90984331 13.60262398 -41.3671875 5.17578125 C-30.04740108 -5.27527737 -13.55144871 -7.15853364 0 0 Z M17 112 C17 167.44 17 222.88 17 280 C21.36954363 276.25467689 25.45537908 272.66817442 29.48876953 268.62475586 C30.23903412 267.87471031 30.23903412 267.87471031 31.00445557 267.10951233 C32.63296065 265.48031899 34.25790726 263.84762676 35.8828125 262.21484375 C37.02646228 261.06932454 38.17033627 259.92402913 39.31442261 258.77894592 C42.30998499 255.77958819 45.30253414 252.77724193 48.29443359 249.77423096 C51.33379874 246.72463055 54.37599628 243.6778586 57.41796875 240.63085938 C62.77146848 235.26782257 68.1224959 229.90233 73.47171021 224.53501892 C74.72321365 223.28018456 74.72321365 223.28018456 76 222 C76.89177948 221.1026564 77.78355896 220.20531281 78.70236206 219.28077698 C80.69387426 217.30387927 82.72420533 215.48577853 84.875 213.6875 C88.37897328 210.66433508 91.33940163 207.39407485 94.32421875 203.8671875 C96.66782472 201.25589693 99.23732097 199.15623729 102 197 C97.61826976 191.7598442 93.01005098 186.86679644 88.17456055 182.04516602 C87.41451218 181.28336533 86.65446381 180.52156464 85.87138367 179.73667908 C83.37899114 177.23991382 80.88299309 174.74679001 78.38671875 172.25390625 C76.64876426 170.51527783 74.91095821 168.776501 73.17329407 167.0375824 C69.54285225 163.40567018 65.91061719 159.77556353 62.27709961 156.14672852 C57.60829475 151.48364611 52.9440275 146.81605469 48.28106976 142.1471262 C44.69968173 138.56213653 41.11593014 134.97951728 37.53144264 131.39762688 C35.80942078 129.67627407 34.08814687 127.9541727 32.36762047 126.23132515 C29.97363891 123.83482084 27.57650457 121.4415168 25.1784668 119.04907227 C24.46213074 118.33071198 23.74579468 117.61235168 23.00775146 116.8722229 C22.35874374 116.226035 21.70973602 115.57984711 21.0410614 114.91407776 C20.47457728 114.34797067 19.90809317 113.78186357 19.32444286 113.19860172 C18.17413773 111.88816591 18.17413773 111.88816591 17 112 Z M17 446 C17 501.44 17 556.88 17 614 C22.55205775 609.27927792 22.55205775 609.27927792 27.80296326 604.31729126 C28.80185326 603.32046326 28.80185326 603.32046326 29.82092285 602.30349731 C30.52511353 601.59571136 31.2293042 600.88792542 31.95483398 600.15869141 C32.71663467 599.39703674 33.47843536 598.63538208 34.26332092 597.85064697 C36.75995857 595.35331728 39.25304362 592.85247313 41.74609375 590.3515625 C43.48464954 588.61114002 45.22342744 586.87093939 46.9624176 585.13095093 C51.52332637 580.56623679 56.08122314 575.99852673 60.63848877 571.43017578 C65.29558054 566.76282722 69.95552903 562.09833276 74.61523438 557.43359375 C83.74627983 548.29184591 92.87424173 539.14702563 102 530 C101.21085205 529.21608887 100.4217041 528.43217773 99.60864258 527.62451172 C97.51540838 525.51854377 95.58883295 523.39905082 93.6875 521.125 C90.69618606 517.66446034 87.49850919 514.66991536 83.9921875 511.73828125 C81.5427492 509.60102626 79.29192435 507.30598454 77 505 C76.0553791 504.05277058 75.11056916 503.10572965 74.16558838 502.15885925 C73.1211149 501.11137812 72.07666208 500.0638764 71.03222656 499.01635742 C65.21137174 493.17922997 59.3880249 487.34459542 53.56322098 481.51140881 C50.04359612 477.98653821 46.52492361 474.46072714 43.00830078 470.93286133 C39.6006786 467.51441789 36.19065824 464.09838412 32.77892303 460.68404579 C31.47821982 459.38148966 30.17839951 458.07805128 28.8794632 456.77373314 C27.0720019 454.95906986 25.26149358 453.14750217 23.45019531 451.33666992 C22.90995224 450.79283157 22.36970917 450.24899323 21.81309509 449.68867493 C19.75598198 447.14070467 19.75598198 447.14070467 17 446 Z " fill="#FFFFFF" transform="translate(417,37)"/>
</svg>
