<?xml version="1.0" encoding="UTF-8"?>
<svg version="1.1" xmlns="http://www.w3.org/2000/svg" width="800" height="800">
<path d="M0 0 C23.1 0 46.2 0 70 0 C74.47845059 22.39225293 77.23331735 43.44225609 77.25 66.125 C77.25101212 67.37355774 77.25101212 67.37355774 77.25204468 68.64733887 C77.23294238 83.59283475 76.3276906 98.21824828 74 113 C73.83371094 114.06541016 73.66742187 115.13082031 73.49609375 116.22851562 C65.38647157 166.29792368 44.40176433 213.2361271 13 253 C14.41711942 254.65906664 15.83534989 256.31719341 17.25823116 257.97132111 C18.31987328 259.2078405 19.37698838 260.44828987 20.42591953 261.69561005 C26.1126874 268.35872863 32.34583071 274.47885019 38.54467773 280.65820312 C39.80699295 281.92023584 41.06908716 283.18248964 42.33097839 284.44494629 C45.7373113 287.8515647 49.14670646 291.25510306 52.55668139 294.65807533 C56.12723846 298.22235775 59.69494139 301.78949475 63.26295471 305.35632324 C70.01099928 312.10126658 76.76158768 318.84365794 83.51310545 325.58512449 C91.20313346 333.26395376 98.89030346 340.94564145 106.57724082 348.62756443 C122.38166071 364.4215473 138.18964645 380.2119571 154 396 C152.35296864 399.48933577 150.48320216 401.75955899 147.73388672 404.49316406 C146.85312469 405.37377502 145.97236267 406.25438599 145.06491089 407.16168213 C144.10327649 408.11310431 143.1415328 409.06441603 142.1796875 410.015625 C141.19561893 410.99596129 140.21199258 411.97674168 139.22879028 412.95794678 C136.64557286 415.53354467 134.05640488 418.10307857 131.46594238 420.67138672 C128.8213238 423.29551067 126.1823899 425.92533771 123.54296875 428.5546875 C118.36751928 433.7087167 113.18576878 438.85635157 108 444 C103.87846242 442.62989743 101.45113846 440.8259507 98.39331055 437.765625 C97.51277512 436.89131836 96.63223969 436.01701172 95.72502136 435.11621094 C94.77861027 434.1611146 93.83251678 433.20570344 92.88671875 432.25 C91.9078853 431.27064763 90.92853265 430.29181392 89.94868469 429.31347656 C87.90235122 427.26705359 85.86126637 425.21557988 83.82397461 423.16015625 C81.20844223 420.52186236 78.58189955 417.8948658 75.95160198 415.27130127 C73.93097135 413.25400519 71.91534777 411.23176791 69.90131569 409.20788574 C68.93416905 408.23688356 67.9656626 407.26723389 66.9957943 406.2989502 C65.6454925 404.94901774 64.30241369 403.59187182 62.9597168 402.234375 C62.19314255 401.46319336 61.4265683 400.69201172 60.63676453 399.89746094 C59 398 59 398 59 396 C58.4663382 395.80394669 57.93267639 395.60789337 57.38284302 395.40589905 C53.9068593 393.35503705 51.55621169 390.49094104 48.87451172 387.50561523 C40.51194118 378.37707676 31.77482482 369.64812428 23.0078125 360.91015625 C21.32366245 359.22787687 19.63973718 357.54537243 17.95602417 355.86265564 C13.57557016 351.48597582 9.19211925 347.11231013 4.8079834 342.73931885 C0.31414397 338.25580468 -4.17678021 333.76937243 -8.66796875 329.28320312 C-17.44250177 320.51931722 -26.22021152 311.75862069 -35 303 C-38.65971446 304.39449946 -41.17301041 305.79337073 -44.125 308.375 C-101.08667038 355.08017914 -182.47025935 373.18070782 -254.58764648 366.17529297 C-259.74848276 365.58322915 -264.8735794 364.83698329 -270 364 C-271.06573242 363.82839355 -272.13146484 363.65678711 -273.22949219 363.47998047 C-322.95338109 355.23197696 -372.21447994 334.54937017 -411 302 C-411.83217041 301.30994873 -411.83217041 301.30994873 -412.68115234 300.60595703 C-424.77163779 290.57843446 -436.73380032 280.32022185 -446.97265625 268.36328125 C-448.52650604 266.55195346 -450.09691816 264.7626484 -451.68359375 262.98046875 C-492 217.34643874 -492 217.34643874 -492 200 C-425.34 200 -358.68 200 -290 200 C-291.52677925 203.81694812 -293.02084725 206.921105 -295.09765625 210.41015625 C-295.72623535 211.46920166 -296.35481445 212.52824707 -297.00244141 213.61938477 C-297.68897157 214.76718319 -298.37566193 215.9148858 -299.0625 217.0625 C-299.77279592 218.25502439 -300.48291655 219.4476532 -301.19287109 220.64038086 C-307.81497712 231.74945634 -314.52863672 242.8032165 -321.2578125 253.84765625 C-321.88977539 254.88680176 -322.52173828 255.92594727 -323.17285156 256.99658203 C-324.37529305 258.97312335 -325.58030385 260.94810429 -326.78808594 262.92138672 C-327.32981445 263.81229004 -327.87154297 264.70319336 -328.4296875 265.62109375 C-328.90390137 266.39767334 -329.37811523 267.17425293 -329.86669922 267.97436523 C-331.13500084 270.09295287 -331.13500084 270.09295287 -332 273 C-330.824375 273.3403125 -330.824375 273.3403125 -329.625 273.6875 C-326.71424494 274.74139407 -324.22149213 275.87949206 -321.49609375 277.3046875 C-268.77965897 303.86927841 -204.3929386 304.68962813 -149 287 C-136.51215194 282.71370632 -124.67165337 277.13410227 -113 271 C-112.08734375 270.54496094 -111.1746875 270.08992188 -110.234375 269.62109375 C-58.34096766 242.95807004 -19.76228881 191.89874942 -1.97705078 137.13916016 C11.2721567 94.57086685 12.70286125 48.93030051 0.734375 5.84375 C0 3 0 3 0 0 Z " fill="#FFFFFF" transform="translate(590,300)"/>
<path d="M0 0 C0.58491211 0.46776855 1.16982422 0.93553711 1.77246094 1.41748047 C10.30066735 8.25461943 18.06759277 15.86511606 25.8125 23.5625 C26.30100433 24.04564667 26.78950867 24.52879333 27.29281616 25.02658081 C33.98920163 31.66715954 40.18681437 38.56874711 46 46 C46.59997803 46.76626709 47.19995605 47.53253418 47.81811523 48.32202148 C56.28371757 59.29487066 63.75533053 70.68432658 70.66894531 82.68896484 C71.94230708 84.89983104 73.23066574 87.1012239 74.5234375 89.30078125 C80 98.69133167 80 98.69133167 80 101 C13.01 101 -53.98 101 -123 101 C-121.39662202 96.18986607 -119.76639741 92.7442055 -117.0625 88.625 C-111.6927598 80.2441231 -106.62634878 71.69236861 -101.5625 63.125 C-94.79975062 51.69285888 -87.98352269 40.29918279 -81 29 C-91.3092689 22.16984255 -102.40148585 18.09208407 -114 14 C-114.78262207 13.71737305 -115.56524414 13.43474609 -116.37158203 13.14355469 C-168.75298942 -5.59727331 -233.25168764 -2.51882445 -283.640625 21.11328125 C-287.47629689 22.98575186 -291.23572135 24.98858684 -295 27 C-296.66439021 27.79644154 -298.33080239 28.58868377 -300 29.375 C-316.94549964 37.8762776 -331.71457236 49.6830368 -346 62 C-346.77601563 62.65097656 -347.55203125 63.30195313 -348.3515625 63.97265625 C-352.31965408 67.33557556 -355.79996852 70.87791065 -359.16015625 74.84765625 C-361.17482596 77.20452038 -363.27183907 79.4718794 -365.375 81.75 C-389.4995558 108.60486871 -406.82470791 142.92838809 -415 178 C-415.18256348 178.77005371 -415.36512695 179.54010742 -415.55322266 180.33349609 C-416.11541649 182.73960729 -416.65666224 185.14928687 -417.1875 187.5625 C-417.3426709 188.25714355 -417.4978418 188.95178711 -417.65771484 189.66748047 C-420.58039233 203.69442008 -421.38053857 217.7760788 -421.3125 232.0625 C-421.30976578 233.26581467 -421.30976578 233.26581467 -421.30697632 234.49343872 C-421.22810728 255.23445339 -418.5286867 274.80180818 -413.41137695 294.90722656 C-413 297 -413 297 -413 301 C-435.77 301 -458.54 301 -482 301 C-502.11324805 240.66025585 -490.09609379 162.25652385 -462.25 106.25 C-461.21487009 104.21618314 -460.1693132 102.18818015 -459.11816406 100.16259766 C-457.93765081 97.87941286 -456.7773286 95.58656489 -455.6171875 93.29296875 C-450.38316937 83.03805915 -444.67767437 73.37779926 -438 64 C-437.54979492 63.36578125 -437.09958984 62.7315625 -436.63574219 62.078125 C-428.29050599 50.38192851 -419.38220657 39.33063949 -409.578125 28.82421875 C-407.7849231 26.85984758 -406.07805774 24.90250404 -404.3984375 22.84765625 C-402.4706263 20.55877292 -400.6556261 18.65889409 -398.375 16.75 C-395.13215363 13.99116055 -391.99370635 11.14856238 -388.875 8.25 C-343.71117835 -32.71827538 -285.22081317 -57.6085351 -225 -65 C-224.21197998 -65.09804932 -223.42395996 -65.19609863 -222.61206055 -65.29711914 C-143.36295443 -74.66566491 -61.66585411 -50.2468029 0 0 Z " fill="#FFFFFF" transform="translate(556,133)"/>
</svg>
